<svg width="1280" height="139" viewBox="0 0 1280 139" fill="none" xmlns="http://www.w3.org/2000/svg">
<path d="M4.99568 139C3.53028 139 2.33132 138.537 1.39879 137.61C0.466264 136.683 0 135.492 0 134.036V4.96429C0 3.5081 0.466264 2.31667 1.39879 1.39001C2.33132 0.463335 3.53028 0 4.99568 0H64.3444C75.4015 0 84.4603 1.58857 91.5209 4.76571C98.5815 7.94286 103.777 12.4438 107.107 18.2686C110.571 24.0933 112.303 30.911 112.303 38.7214C112.303 43.6195 111.37 47.9219 109.505 51.6286C107.774 55.3352 105.575 58.38 102.911 60.7629C100.38 63.1457 97.9154 64.9329 95.5175 66.1243C100.713 68.5071 105.242 72.4786 109.106 78.0386C113.102 83.4662 115.101 89.9529 115.101 97.4986C115.101 105.839 113.235 113.12 109.505 119.341C105.775 125.563 100.247 130.395 92.9197 133.837C85.5927 137.279 76.6671 139 66.1428 139H4.99568ZM31.7725 115.767H62.3461C68.8738 115.767 73.8029 113.98 77.1333 110.406C80.4638 106.699 82.129 102.33 82.129 97.3C82.129 92.1371 80.3972 87.8348 76.9335 84.3929C73.6031 80.8186 68.7406 79.0314 62.3461 79.0314H31.7725V115.767ZM31.7725 56.1957H60.5477C66.8089 56.1957 71.4716 54.6733 74.5356 51.6286C77.7328 48.4514 79.3314 44.4138 79.3314 39.5157C79.3314 34.6176 77.7328 30.7124 74.5356 27.8C71.4716 24.7552 66.8089 23.2329 60.5477 23.2329H31.7725V56.1957Z" fill="url(#paint0_linear_321_371)"/>
<path d="M143.938 139C142.473 139 141.274 138.537 140.341 137.61C139.409 136.683 138.942 135.492 138.942 134.036V4.96429C138.942 3.5081 139.409 2.31667 140.341 1.39001C141.274 0.463335 142.473 0 143.938 0H196.892C213.545 0 226.667 3.83905 236.258 11.5171C245.85 19.0629 250.646 29.9843 250.646 44.2814C250.646 53.9452 248.315 62.0205 243.652 68.5071C238.989 74.9938 232.728 79.8257 224.868 83.0029L253.044 132.646C253.443 133.44 253.643 134.168 253.643 134.83C253.643 135.889 253.244 136.882 252.444 137.809C251.645 138.603 250.646 139 249.447 139H227.266C224.868 139 223.07 138.404 221.871 137.213C220.672 135.889 219.806 134.698 219.273 133.639L194.894 88.1657H170.715V134.036C170.715 135.492 170.249 136.683 169.316 137.61C168.384 138.537 167.185 139 165.719 139H143.938ZM170.715 62.9471H196.293C203.62 62.9471 209.015 61.2924 212.479 57.9829C216.076 54.6733 217.874 50.04 217.874 44.0829C217.874 38.1257 216.142 33.4262 212.679 29.9843C209.215 26.5424 203.753 24.8214 196.293 24.8214H170.715V62.9471Z" fill="url(#paint1_linear_321_371)"/>
<path d="M266.96 139C265.761 139 264.762 138.603 263.962 137.809C263.163 136.882 262.764 135.889 262.764 134.83C262.764 134.168 262.83 133.572 262.963 133.043L310.522 5.36143C310.922 3.90524 311.721 2.64762 312.92 1.58857C314.119 0.529525 315.784 0 317.916 0H343.494C345.625 0 347.29 0.529525 348.489 1.58857C349.688 2.64762 350.488 3.90524 350.887 5.36143L398.446 133.043C398.579 133.572 398.646 134.168 398.646 134.83C398.646 135.889 398.246 136.882 397.447 137.809C396.648 138.603 395.649 139 394.45 139H373.668C371.669 139 370.204 138.537 369.272 137.61C368.339 136.683 367.74 135.823 367.473 135.029L358.88 112.789H302.529L293.937 135.029C293.67 135.823 293.071 136.683 292.138 137.61C291.206 138.537 289.74 139 287.742 139H266.96ZM309.923 87.1729H351.287L330.705 29.9843L309.923 87.1729Z" fill="url(#paint2_linear_321_371)"/>
<path d="M420.847 139C419.382 139 418.183 138.537 417.25 137.61C416.318 136.683 415.852 135.492 415.852 134.036V4.96429C415.852 3.5081 416.318 2.31667 417.25 1.39001C418.183 0.463335 419.382 0 420.847 0H439.032C441.03 0 442.495 0.463335 443.428 1.39001C444.36 2.31667 444.96 3.04476 445.226 3.57429L498.58 86.3786V4.96429C498.58 3.5081 499.046 2.31667 499.979 1.39001C500.911 0.463335 502.044 0 503.376 0H523.758C525.224 0 526.423 0.463335 527.355 1.39001C528.288 2.31667 528.754 3.5081 528.754 4.96429V134.036C528.754 135.36 528.288 136.551 527.355 137.61C526.423 138.537 525.224 139 523.758 139H505.374C503.376 139 501.911 138.537 500.978 137.61C500.179 136.551 499.579 135.823 499.18 135.426L446.025 55.2029V134.036C446.025 135.492 445.559 136.683 444.627 137.61C443.694 138.537 442.495 139 441.03 139H420.847Z" fill="url(#paint3_linear_321_371)"/>
<path d="M563.302 139C561.837 139 560.638 138.537 559.705 137.61C558.773 136.683 558.307 135.492 558.307 134.036V4.96429C558.307 3.5081 558.773 2.31667 559.705 1.39001C560.638 0.463335 561.837 0 563.302 0H613.459C626.781 0 637.904 2.1181 646.83 6.35429C655.756 10.4581 662.55 16.5476 667.212 24.6229C672.008 32.5657 674.539 42.4281 674.806 54.21C674.939 60.0348 675.006 65.1314 675.006 69.5C675.006 73.8686 674.939 78.899 674.806 84.5914C674.406 96.9029 671.942 107.096 667.412 115.171C662.883 123.247 656.222 129.27 647.43 133.241C638.637 137.08 627.647 139 614.458 139H563.302ZM590.079 113.384H613.459C620.12 113.384 625.582 112.391 629.845 110.406C634.108 108.42 637.238 105.309 639.237 101.073C641.368 96.7043 642.5 91.0781 642.634 84.1943C642.767 80.3552 642.834 76.9133 642.834 73.8686C642.967 70.8238 642.967 67.7791 642.834 64.7343C642.834 61.6895 642.767 58.3138 642.634 54.6071C642.367 44.6786 639.769 37.3976 634.84 32.7643C630.045 27.9986 622.584 25.6157 612.46 25.6157H590.079V113.384Z" fill="url(#paint4_linear_321_371)"/>
<path d="M749.079 139C747.747 139 746.548 138.537 745.482 137.61C744.55 136.683 744.083 135.492 744.083 134.036V4.96429C744.083 3.5081 744.55 2.31667 745.482 1.39001C746.548 0.463335 747.747 0 749.079 0H767.663C769.661 0 771.127 0.529525 772.059 1.58857C773.125 2.64762 773.858 3.44191 774.257 3.97144L811.026 71.2871L848.194 3.97144C848.46 3.44191 849.059 2.64762 849.992 1.58857C851.058 0.529525 852.59 0 854.588 0H873.172C874.637 0 875.836 0.463335 876.769 1.39001C877.701 2.31667 878.168 3.5081 878.168 4.96429V134.036C878.168 135.492 877.701 136.683 876.769 137.61C875.836 138.537 874.637 139 873.172 139H852.79C851.457 139 850.325 138.537 849.393 137.61C848.46 136.683 847.994 135.492 847.994 134.036V53.8129L822.616 101.073C821.95 102.264 821.084 103.323 820.018 104.25C818.952 105.177 817.553 105.64 815.822 105.64H806.43C804.698 105.64 803.299 105.177 802.233 104.25C801.168 103.323 800.302 102.264 799.635 101.073L774.257 53.8129V134.036C774.257 135.492 773.791 136.683 772.859 137.61C771.926 138.537 770.794 139 769.462 139H749.079Z" fill="url(#paint5_linear_321_371)"/>
<path d="M899.616 139C898.417 139 897.418 138.603 896.619 137.809C895.82 136.882 895.42 135.889 895.42 134.83C895.42 134.168 895.487 133.572 895.62 133.043L943.179 5.36143C943.578 3.90524 944.378 2.64762 945.577 1.58857C946.776 0.529525 948.441 0 950.572 0H976.15C978.282 0 979.947 0.529525 981.146 1.58857C982.345 2.64762 983.144 3.90524 983.544 5.36143L1031.1 133.043C1031.24 133.572 1031.3 134.168 1031.3 134.83C1031.3 135.889 1030.9 136.882 1030.1 137.809C1029.3 138.603 1028.31 139 1027.11 139H1006.32C1004.33 139 1002.86 138.537 1001.93 137.61C1001 136.683 1000.4 135.823 1000.13 135.029L991.537 112.789H935.186L926.593 135.029C926.327 135.823 925.727 136.683 924.794 137.61C923.862 138.537 922.397 139 920.398 139H899.616ZM942.579 87.1729H983.943L963.361 29.9843L942.579 87.1729Z" fill="url(#paint6_linear_321_371)"/>
<path d="M1053.5 139C1052.04 139 1050.84 138.537 1049.91 137.61C1048.97 136.683 1048.51 135.492 1048.51 134.036V4.96429C1048.51 3.5081 1048.97 2.31667 1049.91 1.39001C1050.84 0.463335 1052.04 0 1053.5 0H1074.69C1076.15 0 1077.35 0.463335 1078.28 1.39001C1079.21 2.31667 1079.68 3.5081 1079.68 4.96429V50.2386L1120.85 3.77286C1121.38 2.97857 1122.24 2.18429 1123.44 1.39001C1124.78 0.463335 1126.51 0 1128.64 0H1152.82C1154.02 0 1155.02 0.463335 1155.82 1.39001C1156.61 2.18429 1157.01 3.11096 1157.01 4.17001C1157.01 5.09667 1156.75 5.89095 1156.21 6.55286L1104.86 66.5214L1160.01 132.447C1160.54 132.977 1160.81 133.771 1160.81 134.83C1160.81 135.889 1160.41 136.882 1159.61 137.809C1158.81 138.603 1157.81 139 1156.61 139H1131.64C1129.24 139 1127.44 138.47 1126.24 137.411C1125.04 136.352 1124.24 135.624 1123.84 135.227L1079.68 84.3929V134.036C1079.68 135.492 1079.21 136.683 1078.28 137.61C1077.35 138.537 1076.15 139 1074.69 139H1053.5Z" fill="url(#paint7_linear_321_371)"/>
<path d="M1182.88 139C1181.42 139 1180.22 138.537 1179.29 137.61C1178.35 136.683 1177.89 135.492 1177.89 134.036V4.96429C1177.89 3.5081 1178.35 2.31667 1179.29 1.39001C1180.22 0.463335 1181.42 0 1182.88 0H1273.41C1274.87 0 1276.07 0.463335 1277 1.39001C1277.94 2.31667 1278.4 3.5081 1278.4 4.96429V20.85C1278.4 22.1738 1277.94 23.2991 1277 24.2257C1276.07 25.1524 1274.87 25.6157 1273.41 25.6157H1208.66V56.7914H1269.01C1270.47 56.7914 1271.67 57.2548 1272.61 58.1814C1273.54 59.1081 1274.01 60.2995 1274.01 61.7557V76.45C1274.01 77.7738 1273.54 78.899 1272.61 79.8257C1271.67 80.7524 1270.47 81.2157 1269.01 81.2157H1208.66V113.384H1275C1276.47 113.384 1277.67 113.848 1278.6 114.774C1279.53 115.701 1280 116.892 1280 118.349V134.036C1280 135.492 1279.53 136.683 1278.6 137.61C1277.67 138.537 1276.47 139 1275 139H1182.88Z" fill="url(#paint8_linear_321_371)"/>
<defs>
<linearGradient id="paint0_linear_321_371" x1="637.091" y1="-46.4009" x2="637.091" y2="188.643" gradientUnits="userSpaceOnUse">
<stop stop-color="#F3A324"/>
<stop offset="1" stop-color="#060504"/>
</linearGradient>
<linearGradient id="paint1_linear_321_371" x1="637.091" y1="-46.4009" x2="637.091" y2="188.643" gradientUnits="userSpaceOnUse">
<stop stop-color="#F3A324"/>
<stop offset="1" stop-color="#060504"/>
</linearGradient>
<linearGradient id="paint2_linear_321_371" x1="637.091" y1="-46.4009" x2="637.091" y2="188.643" gradientUnits="userSpaceOnUse">
<stop stop-color="#F3A324"/>
<stop offset="1" stop-color="#060504"/>
</linearGradient>
<linearGradient id="paint3_linear_321_371" x1="637.091" y1="-46.4009" x2="637.091" y2="188.643" gradientUnits="userSpaceOnUse">
<stop stop-color="#F3A324"/>
<stop offset="1" stop-color="#060504"/>
</linearGradient>
<linearGradient id="paint4_linear_321_371" x1="637.091" y1="-46.4009" x2="637.091" y2="188.643" gradientUnits="userSpaceOnUse">
<stop stop-color="#F3A324"/>
<stop offset="1" stop-color="#060504"/>
</linearGradient>
<linearGradient id="paint5_linear_321_371" x1="637.091" y1="-46.4009" x2="637.091" y2="188.643" gradientUnits="userSpaceOnUse">
<stop stop-color="#F3A324"/>
<stop offset="1" stop-color="#060504"/>
</linearGradient>
<linearGradient id="paint6_linear_321_371" x1="637.091" y1="-46.4009" x2="637.091" y2="188.643" gradientUnits="userSpaceOnUse">
<stop stop-color="#F3A324"/>
<stop offset="1" stop-color="#060504"/>
</linearGradient>
<linearGradient id="paint7_linear_321_371" x1="637.091" y1="-46.4009" x2="637.091" y2="188.643" gradientUnits="userSpaceOnUse">
<stop stop-color="#F3A324"/>
<stop offset="1" stop-color="#060504"/>
</linearGradient>
<linearGradient id="paint8_linear_321_371" x1="637.091" y1="-46.4009" x2="637.091" y2="188.643" gradientUnits="userSpaceOnUse">
<stop stop-color="#F3A324"/>
<stop offset="1" stop-color="#060504"/>
</linearGradient>
</defs>
</svg>
